<svg xmlns="http://www.w3.org/2000/svg"><symbol id="icons" viewBox="0 0 500 500"><style>.st0{fill:#666}</style><circle cx="-334.7" cy="153.1" r="93.5" class="st0"/><path d="M-155.3 424.1c1-1 1.9-2 2.9-3 .6-.6 1.1-1.2 1.7-1.8.9-1 1.9-2.1 2.8-3.1.5-.6 1-1.2 1.6-1.8 1-1.2 2-2.3 3-3.5.4-.5.8-1 1.2-1.4 35.9-43.3 57.4-98.8 57.4-159.4 0-138.1-111.9-250-250-250s-250 111.9-250 250c0 60.6 21.6 116.1 57.4 159.4.4.5.8 1 1.2 1.4 1 1.2 2 2.4 3 3.5.5.6 1 1.2 1.6 1.8.9 1 1.9 2.1 2.8 3.1.6.6 1.1 1.2 1.7 1.8.9 1 1.9 2 2.9 3 .6.6 1.1 1.2 1.7 1.7l3.1 3.1c.5.5 1 1 1.6 1.5 1.3 1.2 2.5 2.4 3.8 3.6l.9.9c1.6 1.5 3.3 2.9 4.9 4.4.4.3.7.6 1.1.9 1.3 1.1 2.6 2.2 3.9 3.2.6.5 1.2.9 1.8 1.4 1.1.9 2.2 1.8 3.4 2.7.7.5 1.3 1 2 1.5 1.1.8 2.2 1.7 3.3 2.5.7.5 1.3 1 2 1.5 1.1.8 2.3 1.6 3.4 2.4.7.5 1.3.9 2 1.4 1.3.9 2.6 1.7 3.9 2.6.5.3 1 .7 1.6 1 1.8 1.2 3.7 2.4 5.6 3.5.2.1.3.2.5.3l5.1 3c.6.4 1.2.7 1.9 1l3.9 2.1c.7.4 1.5.8 2.2 1.2 1.2.6 2.4 1.3 3.7 1.9.8.4 1.5.8 2.3 1.1 1.2.6 2.5 1.2 3.7 1.8.8.4 1.5.7 2.3 1.1 1.3.6 2.7 1.2 4 1.8.7.3 1.4.6 2 .9 1.7.7 3.5 1.5 5.3 2.2.3.1.6.2.8.3 2.1.8 4.1 1.6 6.2 2.4l1.8.6c1.5.5 3 1.1 4.5 1.6.8.3 1.6.5 2.3.8 1.3.4 2.7.9 4 1.3.8.3 1.7.5 2.5.7 1.3.4 2.7.8 4 1.1.8.2 1.7.5 2.5.7 1.4.4 2.8.7 4.2 1.1l2.4.6c1.6.4 3.2.7 4.8 1.1.6.1 1.2.3 1.8.4 2.2.5 4.4.9 6.7 1.3.5.1.9.2 1.4.2 1.8.3 3.5.6 5.3.9l2.4.3c1.5.2 2.9.4 4.4.6l2.7.3c1.4.2 2.8.3 4.2.4.9.1 1.8.2 2.7.2 1.4.1 2.9.2 4.3.3.9.1 1.8.1 2.7.2 1.6.1 3.1.1 4.7.2.8 0 1.5.1 2.3.1 2.3.1 4.7.1 7 .1s4.7 0 7-.1c.8 0 1.5-.1 2.3-.1 1.6-.1 3.1-.1 4.7-.2.9 0 1.8-.1 2.7-.2 1.4-.1 2.9-.2 4.3-.3.9-.1 1.8-.2 2.7-.2 1.4-.1 2.8-.3 4.2-.4l2.7-.3c1.5-.2 2.9-.4 4.4-.6l2.4-.3c1.8-.3 3.5-.6 5.3-.9.5-.1.9-.2 1.4-.2 2.2-.4 4.4-.8 6.7-1.3.6-.1 1.2-.3 1.8-.4 1.6-.3 3.2-.7 4.8-1.1l2.4-.6c1.4-.3 2.8-.7 4.2-1.1.8-.2 1.7-.5 2.5-.7 1.3-.4 2.7-.7 4-1.1.8-.2 1.7-.5 2.5-.7 1.4-.4 2.7-.8 4-1.3.8-.3 1.6-.5 2.3-.8 1.5-.5 3-1 4.5-1.6l1.8-.6c2.1-.8 4.2-1.5 6.2-2.4.3-.1.6-.2.8-.3 1.8-.7 3.5-1.4 5.3-2.2.7-.3 1.4-.6 2-.9 1.3-.6 2.7-1.2 4-1.8.8-.3 1.5-.7 2.3-1.1 1.2-.6 2.5-1.2 3.7-1.8.8-.4 1.5-.8 2.3-1.1 1.2-.6 2.5-1.3 3.7-1.9.7-.4 1.5-.8 2.2-1.2l3.9-2.1c.6-.3 1.2-.7 1.9-1l5.1-3c.2-.1.3-.2.5-.3 1.9-1.1 3.7-2.3 5.6-3.5.5-.3 1-.7 1.6-1 1.3-.9 2.6-1.7 3.9-2.6.7-.4 1.3-.9 2-1.4 1.1-.8 2.3-1.6 3.4-2.4.7-.5 1.4-1 2-1.5 1.1-.8 2.2-1.6 3.3-2.5.7-.5 1.3-1 2-1.5 1.1-.9 2.2-1.8 3.4-2.7.6-.5 1.2-.9 1.8-1.4 1.3-1.1 2.6-2.2 3.9-3.2.4-.3.7-.6 1.1-.9 1.7-1.4 3.3-2.9 4.9-4.4l.9-.9c1.3-1.2 2.6-2.4 3.8-3.6.5-.5 1.1-1 1.6-1.5 1-1 2.1-2 3.1-3.1.4-.6 1-1.1 1.5-1.7zM-578.7 250c0-32.9 6.5-64.9 19.2-95 12.3-29.1 29.9-55.1 52.3-77.6 22.4-22.4 48.5-40 77.6-52.3 30.1-12.7 62-19.2 95-19.2s64.9 6.5 95 19.2c29.1 12.3 55.1 29.9 77.6 52.3 22.4 22.4 40 48.5 52.3 77.6 12.7 30.1 19.2 62 19.2 95s-6.5 64.9-19.2 95c-7.9 18.7-18.1 36.2-30.2 52.3-22.5-67.4-101.1-117.2-194.6-117.2s-172.1 49.8-194.6 117.2c-12.2-16.1-22.3-33.6-30.2-52.3-12.9-30.1-19.4-62.1-19.4-95zM250 0C111.9 0 0 111.9 0 250s111.9 250 250 250 250-111.9 250-250S388.1 0 250 0zm172.5 422.5c-22.4 22.4-48.5 40-77.6 52.3-30.1 12.7-62 19.2-95 19.2s-64.9-6.5-95-19.2c-29.1-12.3-55.1-29.9-77.6-52.3-22.4-22.4-40-48.5-52.3-77.6-12.5-30-19-62-19-94.9s6.5-64.9 19.2-95c12.3-29 29.9-55.1 52.3-77.5s48.5-40 77.6-52.3C185.1 12.5 217.1 6 250 6s64.9 6.5 95 19.2c29.1 12.3 55.1 29.9 77.6 52.3 22.4 22.4 40 48.5 52.3 77.6 12.7 30.1 19.2 62 19.2 95s-6.5 64.9-19.2 95c-12.4 28.9-30 55-52.4 77.4z" class="st0"/><path d="M250 88.8c-50.4 0-91.3 40.9-91.3 91.3 0 69.9 91.3 225.3 91.3 225.3s91.3-158.3 91.3-225.3c0-50.4-40.9-91.3-91.3-91.3zm0 133c-22.6 0-40.9-18.3-40.9-40.9S227.4 140 250 140s40.9 18.3 40.9 40.9-18.3 40.9-40.9 40.9z" class="st0"/></symbol></svg>